<?xml version="1.0" encoding="UTF-8"?>
<svg id="Layer_2" data-name="Layer 2" xmlns="http://www.w3.org/2000/svg" viewBox="0 0 960.53 249.75">
  <defs>
    <style>
      .cls-1 {
        opacity: .5;
      }

      .cls-1, .cls-2 {
        fill: #70cff0;
        stroke-width: 0px;
      }

      .cls-2 {
        opacity: .4;
      }
    </style>
  </defs>
  <g id="Layer_1-2" data-name="Layer 1">
    <g>
      <path class="cls-1" d="M.51,67.24c18.74-13.07,37.04-19.93,44.22-25.25,9.33-6.92,20.53-10.84,32.13-11.33,28.23-1.19,79.92-.04,107.01,31.2,23.68,27.3,10.33,18.54,68.15,62.74,26.95,20.6,42.83,25.54,74.64,55.17,17.43,16.23,28.22,26.28,37.86,42.19,15.91,26.23,9.49,27.8,9.49,27.8H.51V67.24h0Z"/>
      <path class="cls-1" d="M.52,0h0c15.26.77,38.02,6.05,38.02,6.05,0,0,89.2,17.42,115.34,58.2,22.85,35.64,8.88,23.27,68.34,84.13,27.72,28.36,45.23,36.7,77.07,76.36,17.45,21.73,19.45,25.02,19.45,25.02h0l-213.82-.08-104.93.08L.52,0h0Z"/>
      <path class="cls-1" d="M960.51,15.32h0c-16.68.86-41.7,5.98-41.7,5.98,0,0-97.94,17.05-127.87,55.31-26.16,33.44-10.49,21.78-77.47,79.05-31.22,26.7-50.62,34.63-86.73,71.89-19.79,20.42-22.08,22.19-22.08,22.19h355.86V15.32h0Z"/>
      <path class="cls-2" d="M960.53,76.58c-18.58-12.44-36.74-19.59-43.86-24.66-9.25-6.58-20.35-10.32-31.85-10.79-19.46-.79-68.53,16.68-96.63,27.4-13.29,5.07-25.88,11.76-37.54,19.91-16.99,11.88-41.8,29.31-50.1,35.6-26.45,20.05-31.84,30.86-63.37,59.07-17.28,15.46-39.84,28.93-51.46,42.2-10.89,12.45-31.41,24.44-31.41,24.44h406.2l.02-173.18h0Z"/>
    </g>
  </g>
</svg>