<?xml version="1.0" encoding="UTF-8"?>
<svg id="Layer_2" data-name="Layer 2" xmlns="http://www.w3.org/2000/svg" viewBox="0 0 1117.74 719.18">
  <defs>
    <style>
      .cls-1 {
        fill: #f9edbb;
      }

      .cls-1, .cls-2, .cls-3, .cls-4, .cls-5, .cls-6, .cls-7, .cls-8, .cls-9, .cls-10, .cls-11, .cls-12, .cls-13, .cls-14, .cls-15, .cls-16, .cls-17, .cls-18, .cls-19, .cls-20, .cls-21, .cls-22, .cls-23, .cls-24, .cls-25, .cls-26, .cls-27, .cls-28, .cls-29, .cls-30, .cls-31, .cls-32, .cls-33, .cls-34, .cls-35, .cls-36, .cls-37, .cls-38, .cls-39, .cls-40, .cls-41, .cls-42 {
        stroke-width: 0px;
      }

      .cls-2 {
        fill: #1ffff9;
      }

      .cls-3 {
        fill: #fcefb9;
      }

      .cls-4 {
        fill: #050554;
      }

      .cls-5 {
        fill: #f9ba1c;
      }

      .cls-6 {
        fill: #390dd6;
      }

      .cls-7 {
        fill: #032556;
      }

      .cls-8 {
        fill: #310af2;
      }

      .cls-8, .cls-10, .cls-25, .cls-28, .cls-41 {
        opacity: .5;
      }

      .cls-9 {
        fill: #f9ecb9;
      }

      .cls-10, .cls-26 {
        fill: #00b6e2;
      }

      .cls-43, .cls-44 {
        fill: none;
        stroke: #fff;
        stroke-miterlimit: 10;
      }

      .cls-11 {
        fill: #f9ebb4;
      }

      .cls-12 {
        fill: #7171ff;
      }

      .cls-13 {
        fill: #f9ebb2;
      }

      .cls-14 {
        fill: #5656d8;
      }

      .cls-15 {
        fill: #0a0aea;
      }

      .cls-15, .cls-20, .cls-31 {
        opacity: .7;
      }

      .cls-16 {
        fill: #f9f1d2;
      }

      .cls-17 {
        fill: #020749;
      }

      .cls-18 {
        fill: #560d05;
      }

      .cls-44 {
        stroke-width: 3px;
      }

      .cls-19 {
        fill: #ff8b00;
      }

      .cls-20 {
        fill: #0c56e8;
      }

      .cls-21 {
        fill: #2aabf2;
      }

      .cls-22 {
        fill: #f9eec0;
      }

      .cls-23, .cls-45 {
        fill: #ff8200;
      }

      .cls-24, .cls-28 {
        fill: #f9f3ed;
      }

      .cls-25, .cls-37 {
        fill: #fff;
      }

      .cls-27 {
        fill: #f9efc5;
        opacity: .8;
      }

      .cls-45 {
        font-family: Sathu, Sathu;
        font-size: 72px;
      }

      .cls-29 {
        fill: #052263;
      }

      .cls-30 {
        fill: #ffc41d;
      }

      .cls-31 {
        fill: #2aa3f4;
      }

      .cls-32 {
        fill: #60605e;
      }

      .cls-33 {
        fill: #032f75;
      }

      .cls-34 {
        fill: #ff9700;
      }

      .cls-35 {
        fill: #29388e;
      }

      .cls-36 {
        fill: #350901;
      }

      .cls-38 {
        fill: #6bb6f9;
      }

      .cls-39 {
        fill: #ffa300;
      }

      .cls-40 {
        fill: #ddd9f9;
      }

      .cls-41 {
        fill: #ffe05c;
      }

      .cls-42 {
        fill: #8e1b04;
      }
    </style>
  </defs>
  <g id="Layer_2-2" data-name="Layer 2">
    <path class="cls-10" d="M88.21,152.61h0c-30.54,3.29-57.31,22.1-71.05,49.91l-8.89,18c-13.46,27.25-10.32,59.89,8.08,84l29.19,38.24c23.06,30.22,28.86,70.44,15.28,106.07l-3.66,9.61-16.87,33.37c-14.93,29.54-14.95,64.54-.03,94.09l29.22,57.89c20.87,41.34,62.85,67.35,108.7,67.35h205.03c18.86,0,37.6-2.93,55.59-8.68l22.27-7.12c14.84-4.75,30.42-6.7,45.95-5.78l137.21,8.17,15.66,3.96c57.06,14.44,117.52,2.02,164.51-33.81l167.15-127.45c41.54-31.68,68.99-78.73,76.35-130.85h0c3.68-26.08,9.92-51.72,18.64-76.54l1.08-3.07c10.51-29.94,12.82-62.21,6.66-93.37l-7.91-40.05c-11.53-58.37-52.7-106.21-108.23-125.77h0c-25.69-9.05-54.1-5.23-76.56,10.3h0c-20.77,21.03-51.92,27.5-79.19,16.46l-7.79-3.15c-2.55-1.03-4.58-3.05-5.65-5.61h0c-11.73-28.08-38.06-47.11-68.1-49.22l-43.36-3.05c-56.99-4.01-70.61,11.08-121.26,37.84l-2.23,1.18c-33.24,17.56-70.51,25.82-107.96,23.92l-53.54-2.71c-26.86-1.36-53.35-6.88-78.56-16.38l-73.96-27.86c-32.43-12.22-63.76-17.48-95.33-3.13l-16.64,6.84c-5.37,2.44-13.98,12.5-18.33,16.5l-3.67,3.37c-9.89,9.09-15.31,22.17-14.66,35.68.96,19.71,4.55,37.84-23.14,40.82Z"/>
    <path class="cls-10" d="M122.68,172.57h0c-28.81,2.89-54.07,19.42-67.03,43.85l-8.39,15.82c-12.69,23.94-9.73,52.62,7.63,73.8l27.53,33.6c21.76,26.55,27.23,61.89,14.42,93.19l-3.45,8.44-15.91,29.31c-14.09,25.95-14.1,56.71-.03,82.67l27.57,50.86c19.69,36.32,59.29,59.17,102.55,59.17h193.43c17.79,0,35.48-2.57,52.44-7.62l21-6.25c14-4.17,28.69-5.89,43.35-5.08l129.45,7.18,14.78,3.48c53.83,12.69,110.87,1.78,155.2-29.7l157.69-111.97c39.19-27.83,65.09-69.16,72.03-114.96h0c3.47-22.91,9.36-45.44,17.59-67.24l1.02-2.7c9.92-26.31,12.09-54.65,6.28-82.03l-7.46-35.18c-10.88-51.28-49.71-93.31-102.1-110.49h0c-24.24-7.95-51.03-4.59-72.23,9.05h0c-19.6,18.48-48.98,24.16-74.71,14.46l-7.35-2.77c-2.4-.91-4.32-2.68-5.33-4.93h0c-11.07-24.67-35.9-41.39-64.25-43.24l-40.9-2.68c-53.77-3.52-66.61,9.74-114.4,33.24l-2.11,1.04c-31.36,15.43-66.52,22.68-101.85,21.02l-50.51-2.38c-25.34-1.19-50.33-6.05-74.11-14.39l-69.77-24.48c-30.6-10.74-60.15-15.36-89.94-2.75l-15.7,6.01c-5.06,2.14-13.19,10.98-17.3,14.5l-3.46,2.96c-9.33,7.99-14.45,19.48-13.83,31.34.91,17.31,4.29,33.24-21.83,35.87Z"/>
    <path class="cls-31" d="M300.01,689.05l-79.88-95.75c-38.45-46.09-59.36-116.03-59.05-197.56l.54-145.93c.16-42.83,6.11-87.76,17.55-132.57L209.1,0l100.37,222.93c11.03,24.5,17.4,53.82,18.69,86.05l6.26,156.44c1.56,38.89-2.41,80.2-11.69,121.78l-22.73,101.84Z"/>
    <path class="cls-44" d="M300.01,689.05l-38.13-170.11c-13.25-62.98-24.62-136.56-33.72-218.17l-20.75-206.98"/>
    <path class="cls-15" d="M218.75,719.18l-65.56-23.14c-31.56-11.14-58.14-32.86-75.08-61.36l-30.32-51.01c-8.9-14.97-14.95-31.42-17.84-48.53l-7.57-44.77,103.92,64.89c11.42,7.13,21.2,16.55,28.7,27.63l36.4,53.8c9.05,13.37,15.46,28.3,18.91,44.01l8.44,38.48Z"/>
    <path class="cls-44" d="M204.64,706.87l-62.62-51.82c-21.76-19.19-40.43-41.6-55.38-66.46l-34.07-63.06"/>
    <path class="cls-20" d="M308.75,708.47l-117.63-89.51c-56.62-43.09-96.32-101.02-112.15-163.67l-28.32-112.12c-8.31-32.91-9.9-66.28-4.68-98.47l13.66-84.21,168.19,191.38c18.49,21.04,32.17,44.85,40.17,69.89l38.81,121.55c9.65,30.21,12.96,61.2,9.77,91.33l-7.82,73.81Z"/>
    <path class="cls-44" d="M300.01,689.05l-90.86-135.99c-31.57-50.35-58.67-109.17-80.36-174.4l-49.44-165.46"/>
    <path class="cls-15" d="M935.51,625.83l66.58-32.06c32.05-15.43,57.71-41.88,72.49-74.71l26.45-58.76c7.76-17.25,12.36-35.81,13.56-54.77l3.15-49.6-102.5,81.58c-11.27,8.97-20.55,20.25-27.26,33.11l-32.55,62.44c-8.09,15.52-13.24,32.47-15.18,49.95l-4.75,42.82Z"/>
    <path class="cls-44" d="M968.85,596.18l52.36-51.82c18.19-19.19,33.81-41.6,46.31-66.46l28.49-63.06"/>
    <path class="cls-20" d="M847.44,648.91l112.31-110.84c54.06-53.36,86.87-119.7,92.68-187.42l10.4-121.2c3.05-35.57-1.35-70.64-12.98-103.45l-30.43-85.86-148.93,224.65c-16.37,24.69-26.97,51.57-31.12,78.89l-20.14,132.6c-5.01,32.96-2.94,65.79,6.09,96.76l22.13,75.86Z"/>
    <path class="cls-44" d="M874.03,604.78l69.17-147.92c23.57-54.46,41.49-116.64,53.13-184.35l24.03-170.93"/>
    <g>
      <g>
        <polygon class="cls-7" points="500.72 582.93 483.3 694.92 678.66 694.92 652.53 582.93 500.72 582.93"/>
        <path class="cls-33" d="M218.91,174.21l667.41,9.44c25.44.36,46.03,20.81,46.57,46.25l6.3,299.89c.84,39.91-31.49,72.62-71.41,72.25l-629.33-5.87c-28.76-.27-51.94-23.66-51.94-52.42V206.15c0-17.82,14.58-32.19,32.39-31.94Z"/>
        <path class="cls-33" d="M428.69,685.72l-3.05,17.31c-1.09,6.17,3.94,11.79,10.55,11.79h277.81c9.48,0,16.12-8.88,12.97-17.35l-4.72-12.7c-2.2-5.94-8.17-9.87-14.82-9.76l-270.95,4.34c-3.88.06-7.16,2.74-7.79,6.36Z"/>
      </g>
      <path class="cls-23" d="M239.83,191.92l640.43,7.35c18.77.22,33.86,14.86,33.86,32.84v294.79c0,18.14-15.34,32.85-34.27,32.85H239.42c-18.93,0-34.27-14.71-34.27-32.85V224.77c0-18.29,15.6-33.06,34.68-32.84Z"/>
      <line class="cls-43" x1="237.72" y1="570.41" x2="896.58" y2="570.41"/>
      <circle class="cls-43" cx="571.92" cy="586.11" r="9.06"/>
      <path class="cls-43" d="M433.89,698.61l1.78-8.03c.29-1.29,1.42-2.21,2.74-2.24l227.16-4.5"/>
    </g>
    <rect class="cls-9" x="251.46" y="229.99" width="97.32" height="12.27" rx="6.14" ry="6.14"/>
    <rect class="cls-9" x="251.46" y="257.68" width="97.32" height="12.27" rx="6.14" ry="6.14"/>
    <rect class="cls-9" x="251.46" y="308.06" width="97.32" height="12.27" rx="6.14" ry="6.14"/>
    <rect class="cls-9" x="251.46" y="333.25" width="97.32" height="12.27" rx="6.14" ry="6.14"/>
    <rect class="cls-9" x="251.46" y="358.44" width="97.32" height="12.27" rx="6.14" ry="6.14"/>
    <rect class="cls-9" x="366.58" y="229.99" width="97.32" height="12.27" rx="6.14" ry="6.14"/>
    <rect class="cls-9" x="366.58" y="257.68" width="97.32" height="12.27" rx="6.14" ry="6.14"/>
    <rect class="cls-9" x="366.58" y="308.06" width="97.32" height="12.27" rx="6.14" ry="6.14"/>
    <rect class="cls-9" x="366.58" y="333.25" width="97.32" height="12.27" rx="6.14" ry="6.14"/>
    <rect class="cls-9" x="366.58" y="358.44" width="97.32" height="12.27" rx="6.14" ry="6.14"/>
    <rect class="cls-9" x="482.35" y="229.99" width="97.32" height="12.27" rx="6.14" ry="6.14"/>
    <rect class="cls-9" x="482.35" y="257.68" width="97.32" height="12.27" rx="6.14" ry="6.14"/>
    <rect class="cls-9" x="480.21" y="308.06" width="97.32" height="12.27" rx="6.14" ry="6.14"/>
    <rect class="cls-9" x="482.35" y="333.25" width="97.32" height="12.27" rx="6.14" ry="6.14"/>
    <rect class="cls-9" x="482.35" y="358.44" width="97.32" height="12.27" rx="6.14" ry="6.14"/>
    <rect class="cls-13" x="591.68" y="231.64" width="24.85" height="60.57"/>
    <polygon class="cls-26" points="591.68 360.6 618.23 360.6 616.53 292.21 591.68 292.21 591.68 360.6"/>
    <rect class="cls-13" x="634.23" y="231.64" width="24.85" height="86.43"/>
    <polygon class="cls-26" points="634.23 360.6 660.77 360.6 659.07 318.07 634.23 318.07 634.23 360.6"/>
    <rect class="cls-13" x="676.48" y="231.64" width="24.85" height="28.17"/>
    <polygon class="cls-26" points="676.48 360.6 703.03 360.6 701.32 259.81 676.48 259.81 676.48 360.6"/>
    <rect class="cls-13" x="718.49" y="231.64" width="24.85" height="106.71"/>
    <polygon class="cls-26" points="718.49 360.6 745.03 360.6 743.33 339.33 718.49 339.33 718.49 360.6"/>
    <rect class="cls-13" x="760.86" y="231.64" width="24.85" height="43.21"/>
    <polygon class="cls-26" points="760.86 360.6 787.41 360.6 785.71 274.85 760.86 274.85 760.86 360.6"/>
    <rect class="cls-13" x="803.24" y="231.64" width="24.85" height="57.05"/>
    <polygon class="cls-26" points="803.24 360.6 829.78 360.6 828.08 288.69 803.24 288.69 803.24 360.6"/>
    <rect class="cls-13" x="845.12" y="231.64" width="24.85" height="76.42"/>
    <polygon class="cls-26" points="845.12 360.6 871.66 360.6 869.96 308.06 845.12 308.06 845.12 360.6"/>
    <ellipse class="cls-16" cx="300.12" cy="435.15" rx="48.66" ry="47.24"/>
    <ellipse class="cls-22" cx="415.24" cy="435.15" rx="48.66" ry="47.24"/>
    <ellipse class="cls-11" cx="528.58" cy="435.15" rx="48.66" ry="47.24"/>
    <path class="cls-26" d="M348.78,435.15c0,17.28-12.11,47.24-50.14,47.24-35.3,0-47.18-29.97-47.18-47.24,0,0,31.38,1.15,48.66,1.15s48.66-1.15,48.66-1.15Z"/>
    <circle class="cls-39" cx="300.12" cy="436.88" r="38.84"/>
    <path class="cls-26" d="M463.9,435.15c0,17.28-12.11,47.24-50.14,47.24-35.3,0-47.18-29.97-47.18-47.24,0,0,31.38,1.15,48.66,1.15l25.88-39.99c23.9,11.96,22.78,38.84,22.78,38.84Z"/>
    <circle class="cls-39" cx="415.24" cy="435.15" r="38.84"/>
    <path class="cls-26" d="M577.24,435.15c0,17.28-12.11,47.24-50.14,47.24-35.3,0-47.18-29.97-47.18-47.24,0,0,31.38,1.15,48.66,1.15l-20.4-44.05c66.82-18.17,69.06,42.9,69.06,42.9Z"/>
    <circle class="cls-39" cx="528.58" cy="436.88" r="38.84"/>
    <rect class="cls-41" x="591.68" y="387.9" width="288.86" height="158.7" rx="11.95" ry="11.95"/>
    <path class="cls-27" d="M602.41,486.56l49.72-51.42,24.35,32.1,32.4-36.5,34.45,36.5,49.97-53.39,36.48,33.77,40.18-21.11v89.17c0,9.04-7.33,16.36-16.36,16.36h-241.9c-5.13,0-9.29-4.16-9.29-9.29v-36.21Z"/>
    <circle class="cls-5" cx="676.93" cy="465.98" r="6.02"/>
    <circle class="cls-5" cx="709.66" cy="429.89" r="5.14"/>
    <circle class="cls-5" cx="793.12" cy="413.86" r="5.14"/>
    <line class="cls-43" x1="652.53" y1="435.63" x2="652.53" y2="532.06"/>
    <line class="cls-43" x1="676.93" y1="467.25" x2="676.93" y2="532.06"/>
    <line class="cls-43" x1="709.66" y1="435.63" x2="709.66" y2="532.06"/>
    <line class="cls-43" x1="744.04" y1="462.14" x2="744.04" y2="532.06"/>
    <line class="cls-43" x1="769.36" y1="439.45" x2="769.36" y2="532.06"/>
    <line class="cls-43" x1="793.12" y1="418.25" x2="793.12" y2="532.06"/>
    <line class="cls-43" x1="829.06" y1="447.63" x2="829.06" y2="532.06"/>
    <line class="cls-43" x1="855.05" y1="433.39" x2="855.05" y2="532"/>
    <line class="cls-43" x1="627.08" y1="461.04" x2="627.08" y2="532.06"/>
    <circle class="cls-5" cx="652.53" cy="435.03" r="6.86"/>
    <circle class="cls-5" cx="744.04" cy="465.55" r="5.14"/>
    <circle class="cls-38" cx="829.06" cy="447.54" r="5.14"/>
    <g>
      <polygon class="cls-18" points="326.68 687.21 335.22 701.56 341.95 699.34 345.72 694.48 337.29 679.91 326.68 687.21"/>
      <path class="cls-14" d="M177.32,546.28l53.81,6.06,48.86,7.83c5.57.75,9.58,5.73,9.12,11.34l-3.77,46.44-16.24,69.29-3.27.52-3.77-.02c-.78.06-1.57,0-2.34-.18l-6.39-1.45,4.26-87.76,8.47-14.66-88.73-37.4Z"/>
      <polygon class="cls-18" points="253.52 685.42 250.83 694.23 257.44 695.94 265.4 695.04 266.31 686.94 253.52 685.42"/>
      <path class="cls-1" d="M208.83,411.51l19.89,15.15c5.86,4.46,10.36,10.47,13,17.35l12.74,33.21c1.6,4.18,4.39,7.81,8.01,10.44l34.25,24.86c1.84,1.34,3.49,2.93,4.89,4.73l1.89,2.43-20.84,1.15-15.4-6.47c-2.42-1.02-5.77-2.84-6.8-3.55l-6.85-4.09-4.59-3.67-7.65-6.62c-.71-.55-3.27-3.38-5.25-6.02l-5.78-6.62-50.82,63.31-22.59,3.87c-2.54.44-5.14.4-7.67-.09l-23.55-4.07,1.7-9.93c.08-.49.18-.97.3-1.45l2.53-10.45,3.24-11.31c.32-1.13.72-2.23,1.19-3.31l3.46-9.48,2.7-6.5,2.6-5.67c.12-.26.25-.51.39-.76l2.27-4.59c1.89-4.56,5.82-11.05,7.38-13.34l7.12-10.72c.24-.39.51-.76.79-1.11l7.79-10.03c3.92-5.49,9.6-11.96,14.76-16.31l24.92-20.31Z"/>
      <polygon class="cls-42" points="209.55 413.37 240.37 393.01 248.53 411.51 229.04 428.87 209.55 413.37"/>
      <path class="cls-42" d="M243.63,409.52l2.3,3.32c.57.83,1.39,1.45,2.34,1.78l13.82,4.77c1.11.38,2.33.14,3.21-.62h0c.83-.72,1.39-1.7,1.59-2.78l6.75-36.12-30.61-4.24.59,33.9Z"/>
      <path class="cls-42" d="M245.37,387.04l-2.13-1.34c-.9-.57-2.02-.69-3.02-.32l-.09.03c-.84.31-1.45,1.04-1.62,1.92l-.47,2.52c-.12.67-.11,1.35.03,2.02l.82,3.7c.18.81.56,1.56,1.09,2.18l.99,1.15c.94,1.09,2.32,1.72,3.76,1.72h.63v-13.59Z"/>
      <path class="cls-36" d="M267.31,381.9h8.19c.51,0,1.01-.11,1.46-.33l1.19-.56c1.67-.79,2.99-2.17,3.71-3.88l.39-.94c1-2.38.99-5.06-.03-7.43l-1.98-4.62c-.84-1.96-2.76-3.23-4.89-3.23h-4.46c-.93,0-1.82.4-2.42,1.11l-2.03,2.34c-.65.75-1.6,1.19-2.59,1.19h-4.94c-.38,0-.76-.05-1.13-.15l-4.68-1.25c-.43-.12-.83-.32-1.19-.59l-.45-.35c-1.79-1.4-4.23-1.61-6.24-.56l-2.38,1.25c-1.93,1.01-3.13,3.01-3.13,5.19v2.57c0,1.63-.99,3.09-2.5,3.7l-.35.14c-1.84.73-3.04,2.51-3.04,4.49v1.91l.51,2.69c.27,1.39,1.28,2.53,2.63,2.94l2.88.89c1.09.33,2.26-.04,2.96-.94l5.33-6.96c.24-.31.63-.48,1.02-.44l18.15,1.82Z"/>
      <path class="cls-12" d="M127.24,544.97l-2.6,14.3c-2.36,13,7.24,25.12,20.44,25.79l101.2,5.11c3.51.18,6.76,1.9,8.88,4.7l5.01,11.5c2.38,5.47,5.53,10.56,9.36,15.13l58.16,69.41,16.4-10.25-65-102.18c-3.48-5.48-8.95-9.39-15.26-10.92-29.45-7.15-58.91-14.3-88.36-21.46-1.54-.37-3.08-.75-4.63-1.12h-43.59Z"/>
      <path class="cls-4" d="M250.34,692.29l-3.16,12.4c-.33,1.28.31,2.61,1.51,3.17l.21.1c1.51.7,3.15,1.06,4.81,1.06h49.97c.96,0,1.85-.48,2.39-1.28h0c.65-.98.53-2.28-.28-3.12l-5.91-6.12c-2.7-2.8-6.21-4.68-10.03-5.37l-4.83-.88c-1.1-.2-2.21-.27-3.32-.23l-17.29.77-2.5,1.46c-.25.15-.53.25-.81.31l-1.63.33c-.26.05-.53.06-.8.03l-2.49-.29c-.09-.01-.17-.02-.26-.04l-1.33-.28c-.34-.07-.67-.2-.97-.37l-1.38-.79c-.09-.05-.17-.09-.26-.13l-1.62-.71Z"/>
      <path class="cls-4" d="M334.78,701.88l5.56,11.53c.57,1.19,1.92,1.8,3.19,1.45l.22-.06c1.6-.44,3.09-1.22,4.36-2.29l38.25-32.16c.73-.62,1.11-1.56,1-2.51h0c-.13-1.17-1.06-2.09-2.22-2.21l-8.46-.89c-3.87-.4-7.76.42-11.13,2.34l-4.27,2.44c-.97.55-1.87,1.21-2.69,1.97l-12.74,11.72-.97,2.73c-.1.28-.24.53-.42.76l-1.04,1.3c-.17.21-.37.39-.59.54l-2.09,1.38c-.07.05-.15.09-.23.13l-1.2.64c-.31.16-.64.28-.98.34l-1.57.29c-.1.02-.19.04-.29.07l-1.7.5Z"/>
      <path class="cls-19" d="M126.26,578.46l81.01,1.89c6.99.16,12.33,6.31,11.5,13.26v.05c-.73,6.07-5.95,10.6-12.07,10.45l-81.01-1.94c-6.44-.15-11.57-5.42-11.57-11.86h0c0-6.66,5.48-12.01,12.14-11.86Z"/>
      <path class="cls-30" d="M206.49,600.3l12.35,110.41c.2,1.78-1.16,3.34-2.92,3.34h-.73c-1.44,0-2.66-1.06-2.9-2.51l-17.86-110.41c-.3-1.83,1.08-3.49,2.9-3.49h6.24c1.49,0,2.75,1.14,2.92,2.66Z"/>
      <path class="cls-30" d="M126.92,600.3l-12.42,110.41c-.2,1.78,1.17,3.34,2.93,3.34h.73c1.45,0,2.68-1.06,2.91-2.51l17.96-110.41c.3-1.83-1.09-3.49-2.91-3.49h-6.27c-1.5,0-2.76,1.14-2.93,2.66Z"/>
      <path class="cls-2" d="M281.1,523.49l1.18-2.01c.24-.4.67-.65,1.14-.66l86.43-.82c.52,0,.98-.31,1.2-.78l36.18-79.05c.29-.63,1.02-.94,1.67-.7l4.75,1.75c.73.27,1.07,1.1.75,1.8l-36.29,79.68c-.22.48-.69.78-1.21.78h-95.8Z"/>
      <path class="cls-29" d="M263.74,526.07l-2.13,6.78c-.72,2.29.99,4.61,3.38,4.61h130.66c2.35,0,4.13-2.12,3.72-4.44l-.86-4.83c-.48-2.72-2.85-4.71-5.62-4.71h-125.63c-1.61,0-3.03,1.04-3.52,2.58Z"/>
      <path class="cls-32" d="M322.5,537.67l-44.85,171.57c-.45,1.74.73,3.48,2.51,3.7l6.35.78c1.5.19,2.9-.79,3.25-2.26l38.88-160.41h1.69l.03,41.82c.04,1.61,1.91,2.88,3.52,2.88h0c1.6,0,3.58-1.04,3.64-2.64l.3-42.11h1.07s40.08,160.79,40.08,160.79c.43,1.69,2.22,2.65,3.86,2.07l5.95-2.1c1.46-.51,2.28-2.06,1.88-3.56l-45.09-170.32-3.35-.12-19.75-.1Z"/>
      <polygon class="cls-42" points="298.87 515.81 326.33 509.1 344.76 520.24 303.5 519.68 298.87 515.81"/>
    </g>
    <g>
      <path class="cls-17" d="M752.71,512.87l264.31-3.52c12.19-.16,22.02,9.95,21.52,22.13l-6.46,155.8c-.47,11.27-9.66,20.21-20.94,20.37l-253.81,3.54c-11.64.16-21.24-9.07-21.54-20.7l-4.04-155.82c-.31-11.84,9.12-21.64,20.96-21.8Z"/>
      <path class="cls-34" d="M759.2,519.78l250.6-3.24c11.56-.15,20.88,9.15,20.4,20.36l-.47,10.96-5.66,132.38c-.44,10.37-9.16,18.59-19.85,18.74l-240.65,3.25c-11.03.15-20.14-8.34-20.42-19.04l-3.62-135.75-.2-7.6c-.29-10.89,8.65-19.91,19.87-20.06Z"/>
      <path class="cls-35" d="M739.32,543.62l290.71,4.23.19-11.12c.2-11.73-9.35-21.3-21.11-21.16l-260.91,3.14c-4.9,0-8.87,3.96-8.87,8.85v16.06Z"/>
      <circle class="cls-37" cx="748.27" cy="523.72" r="1.66"/>
      <circle class="cls-37" cx="748.27" cy="531.71" r="1.66"/>
      <circle class="cls-37" cx="748.27" cy="539.7" r="1.66"/>
      <path class="cls-28" d="M746.61,543.72l6.24,130.61c.4,8.38,7.35,14.95,15.73,14.87l230.97-1.96c8.04-.07,14.57-6.53,14.73-14.57l2.37-124.83-270.04-4.13Z"/>
      <rect class="cls-24" x="895.05" y="574.94" width="93.08" height="8.01" rx="4.01" ry="4.01"/>
      <rect class="cls-24" x="895.05" y="608.37" width="93.08" height="8.01" rx="4.01" ry="4.01"/>
      <rect class="cls-24" x="895.05" y="641.81" width="93.08" height="8.01" rx="4.01" ry="4.01"/>
      <circle class="cls-24" cx="809.23" cy="612.38" r="47.22"/>
      <circle class="cls-21" cx="876.9" cy="579.66" r="4.73"/>
      <circle class="cls-21" cx="876.9" cy="612.38" r="4.73"/>
      <circle class="cls-21" cx="876.9" cy="645.82" r="4.73"/>
      <path class="cls-26" d="M767.78,683.18l233.7-3.61c1.08-.02,2.05-.72,2.51-1.8l2.87-6.77c.9-2.12-.5-4.56-2.6-4.54l-238.32,2.78c-1.84.02-3.17,1.96-2.71,3.95l1.75,7.59c.33,1.42,1.48,2.41,2.8,2.39Z"/>
    </g>
    <g>
      <circle class="cls-23" cx="1035.18" cy="413.86" r="61.47"/>
      <ellipse class="cls-3" cx="1036.13" cy="413.83" rx="50.9" ry="52.83"/>
    </g>
    <g>
      <circle class="cls-23" cx="1035.18" cy="383.46" r="61.47"/>
      <ellipse class="cls-3" cx="1036.13" cy="383.43" rx="50.9" ry="52.83"/>
    </g>
    <rect class="cls-37" x="887.39" y="108.8" width="104.87" height="13.69" rx="6.85" ry="6.85"/>
    <rect class="cls-37" x="887.39" y="133.85" width="104.87" height="13.69" rx="6.85" ry="6.85"/>
    <rect class="cls-37" x="887.39" y="155.99" width="104.87" height="13.69" rx="6.85" ry="6.85"/>
    <rect class="cls-37" x="887.39" y="180.46" width="104.87" height="13.69" rx="6.85" ry="6.85"/>
    <g>
      <polygon class="cls-6" points="778.22 175.67 780.8 174.23 781.31 170.42 779.77 167.74 781.31 164.14 784.4 165.27 787.8 162.59 787.8 159.3 791.92 158.47 793.67 160.94 797.79 161.77 800.16 159.71 803.35 161.67 803.35 164.76 805.41 168.05 808.4 168.57 809.43 172.17 806.96 173.92 806.44 178.25 808.2 180.52 806.34 183.71 803.25 183.71 799.54 185.77 799.34 188.55 795.94 189.79 794.5 187.21 789.86 186.7 787.39 188.45 783.89 186.59 784.5 184.02 782.65 180.21 779.25 179.9 778.22 175.67"/>
      <ellipse class="cls-40" cx="793.86" cy="174.11" rx="9.39" ry="9.6"/>
      <ellipse class="cls-6" cx="793.86" cy="174.05" rx="7.83" ry="8.07"/>
      <polygon class="cls-6" points="797.01 167.77 799.71 165 804.26 171.95 799.71 172.99 797.01 167.77"/>
      <circle class="cls-43" cx="793.83" cy="174.05" r="3.64"/>
    </g>
    <g>
      <polygon class="cls-6" points="809.43 145.73 813.89 143.21 814.78 136.54 812.11 131.86 814.78 125.55 820.13 127.54 826.02 122.85 826.02 117.09 833.15 115.64 836.18 119.97 843.31 121.41 847.41 117.81 852.94 121.23 852.94 126.63 856.51 132.4 861.68 133.3 863.46 139.61 859.18 142.67 858.29 150.24 861.32 154.2 858.11 159.78 852.76 159.78 846.34 163.39 845.99 168.25 840.1 170.41 837.61 165.91 829.58 165.01 825.3 168.07 819.24 164.83 820.31 160.33 817.1 153.66 811.22 153.12 809.43 145.73"/>
      <ellipse class="cls-40" cx="836.5" cy="143" rx="16.26" ry="16.79"/>
      <ellipse class="cls-6" cx="836.5" cy="142.9" rx="13.55" ry="14.11"/>
      <polygon class="cls-6" points="841.95 131.91 846.63 127.07 854.51 139.22 846.63 141.04 841.95 131.91"/>
      <ellipse class="cls-43" cx="836.45" cy="142.9" rx="6.3" ry="6.36"/>
    </g>
    <path class="cls-25" d="M759.59,100.05v101.38c0,11.12,9.1,20.14,20.32,20.14h198.68c10.75,0,19.64-8.3,20.28-18.94l6.09-101.38c.69-11.57-8.58-21.34-20.28-21.34h-204.77c-11.22,0-20.32,9.02-20.32,20.14Z"/>
    <rect class="cls-8" x="358.05" y="89.8" width="17.5" height="72.76"/>
    <rect class="cls-8" x="386.66" y="114.25" width="17.5" height="48.31"/>
    <rect class="cls-8" x="415.24" y="55.81" width="17.5" height="106.75"/>
    <rect class="cls-8" x="442.87" y="138.41" width="17.5" height="24.15"/>
    <rect class="cls-8" x="468.18" y="69.95" width="17.5" height="92.61"/>
    <rect class="cls-8" x="496.97" y="86.15" width="17.5" height="76.41"/>
    <rect class="cls-8" x="524.8" y="102.5" width="17.5" height="60.06"/>
    <rect class="cls-8" x="550.88" y="33.12" width="17.5" height="129.44"/>
    <rect class="cls-8" x="576.8" y="46.87" width="17.5" height="115.69"/>
    <rect class="cls-8" x="604.96" y="67.78" width="17.5" height="94.78"/>
    <rect class="cls-8" x="631.96" y="138.41" width="17.5" height="24.15"/>
    <rect class="cls-8" x="659.07" y="93.79" width="17.5" height="68.77"/>
    <g>
      <circle class="cls-23" cx="1035.18" cy="349.97" r="61.47"/>
      <ellipse class="cls-3" cx="1036.13" cy="349.94" rx="50.9" ry="52.83"/>
    </g>
    <g>
      <ellipse class="cls-23" cx="1036.13" cy="310.21" rx="70.24" ry="65.11"/>
      <ellipse class="cls-3" cx="1037.22" cy="310.17" rx="58.17" ry="55.96"/>
    </g>
    <text class="cls-45" transform="translate(1010.16 339.13)"><tspan x="0" y="0">$</tspan></text>
  </g>
</svg>