<?xml version="1.0" encoding="UTF-8"?>
<svg id="Layer_2" data-name="Layer 2" xmlns="http://www.w3.org/2000/svg" viewBox="0 0 592.8 506.22">
  <defs>
    <style>
      .cls-1 {
        fill: #ff911a;
      }

      .cls-1, .cls-2, .cls-3, .cls-4, .cls-5, .cls-6, .cls-7, .cls-8, .cls-9, .cls-10, .cls-11, .cls-12, .cls-13, .cls-14, .cls-15, .cls-16, .cls-17, .cls-18, .cls-19, .cls-20, .cls-21, .cls-22, .cls-23, .cls-24, .cls-25, .cls-26, .cls-27 {
        stroke-width: 0px;
      }

      .cls-2 {
        fill: #030377;
      }

      .cls-3 {
        fill: #043884;
      }

      .cls-4 {
        fill: #c0ddf9;
      }

      .cls-5 {
        fill: #92c0f7;
      }

      .cls-6 {
        fill: #ff8500;
      }

      .cls-7 {
        fill: #fcc3cd;
      }

      .cls-8 {
        fill: #63c2f7;
      }

      .cls-9 {
        fill: #eab5c1;
      }

      .cls-10 {
        fill: #0d0666;
      }

      .cls-11 {
        fill: #caeaff;
      }

      .cls-12 {
        fill: #aae0f7;
      }

      .cls-13 {
        fill: #deeff9;
      }

      .cls-14 {
        fill: #117fed;
      }

      .cls-15 {
        fill: #d4e6ff;
      }

      .cls-16 {
        fill: #88c9ed;
      }

      .cls-17 {
        fill: #c2def9;
      }

      .cls-18 {
        fill: #0781e5;
      }

      .cls-28 {
        stroke: #c7ebf9;
        stroke-miterlimit: 10;
      }

      .cls-28, .cls-27 {
        fill: #fff;
      }

      .cls-19 {
        fill: #87bbf9;
      }

      .cls-20 {
        fill: #93d5f9;
      }

      .cls-21 {
        fill: #7abdf4;
      }

      .cls-22 {
        fill: #fccfc8;
      }

      .cls-23 {
        fill: #ff9700;
      }

      .cls-24 {
        fill: #078ad3;
      }

      .cls-25 {
        fill: #03032b;
      }

      .cls-26 {
        fill: #ff9100;
      }
    </style>
  </defs>
  <g id="Layer_2-2" data-name="Layer 2">
    <g id="Layer_4" data-name="Layer 4">
      <path class="cls-15" d="M13.95,153.54C1.83,108.86,37.01,45,82.26,35.28l18.14-2.59,103.16,9.43c15.04,1.38,30.2-.24,44.61-4.76L356.78,3.28c35.55-11.15,73.69,6.95,87.52,41.55l5.87,14.69,75.23,263.92-60.62,42.2c-24.67,13.05-53.02,17.4-80.47,12.34l-82.65-20.05-122.46,59.13c-15.32,3.93-41.63.27-55.95-6.46h0c-7.65-3.59-13.96-9.53-18.02-16.95l-13.93-25.48c-1.36-2.49-2.52-5.09-3.47-7.76L24.58,182.46l-10.63-28.93Z"/>
    </g>
    <g>
      <path class="cls-28" d="M83.77,62.1h371.23c11.88,0,21.51,9.2,21.51,20.56v265.96c0,11.43-9.75,20.66-21.71,20.55l-371.23-3.24c-11.8-.1-21.32-9.28-21.32-20.55V82.65c0-11.35,9.63-20.56,21.51-20.56Z"/>
      <path class="cls-12" d="M476.97,98.29l-414.71-.41h0l-.06-18.18c-.03-10.16,9.95-18.41,22.26-18.39l370.53.69c11.88-.02,21.53,7.92,21.53,17.73l.46,18.55h0Z"/>
      <rect class="cls-11" x="154.69" y="119" width="289.84" height="13.8" rx="2.82" ry="2.82"/>
      <rect class="cls-11" x="154.69" y="206.78" width="191.5" height="60.59" rx="9.89" ry="9.89"/>
      <rect class="cls-11" x="360.16" y="281.63" width="102.55" height="64.7" rx="8.79" ry="8.79"/>
      <rect class="cls-11" x="79.78" y="152.96" width="38.65" height="6.9" rx="3.45" ry="3.45"/>
      <rect class="cls-1" x="154.69" y="140.99" width="57.4" height="54.78" rx="8.09" ry="8.09"/>
      <rect class="cls-11" x="222.16" y="140.99" width="54.78" height="54.78" rx="8.7" ry="8.7"/>
      <rect class="cls-13" x="287.01" y="140.99" width="58.07" height="54.78" rx="9.62" ry="9.62"/>
      <rect class="cls-11" x="108.1" y="281.63" width="191.5" height="64.7" rx="9.63" ry="9.63"/>
      <rect class="cls-20" x="360.16" y="206.78" width="102.55" height="60.59" rx="6.31" ry="6.31"/>
      <rect class="cls-1" x="384.07" y="140.99" width="98.59" height="57.29" rx="7.22" ry="7.22"/>
      <rect class="cls-11" x="79.78" y="171.21" width="38.65" height="6.9" rx="3.45" ry="3.45"/>
      <rect class="cls-11" x="79.78" y="192.32" width="38.65" height="6.9" rx="3.45" ry="3.45"/>
      <rect class="cls-11" x="79.78" y="212.54" width="38.65" height="6.9" rx="3.45" ry="3.45"/>
      <rect class="cls-11" x="79.78" y="234.02" width="38.65" height="6.9" rx="3.45" ry="3.45"/>
      <rect class="cls-1" x="75.31" y="114.86" width="47.58" height="17.37" rx="8.68" ry="8.68"/>
      <rect class="cls-27" x="411.39" y="164.93" width="38.65" height="6.9" rx="3.45" ry="3.45"/>
      <rect class="cls-27" x="391.14" y="235.02" width="38.65" height="6.9" rx="3.45" ry="3.45"/>
      <rect class="cls-24" x="392.07" y="313.98" width="38.65" height="6.9" rx="3.45" ry="3.45"/>
      <rect class="cls-27" x="164.06" y="301.59" width="21.35" height="6.9" rx="3.45" ry="3.45"/>
      <rect class="cls-27" x="164.06" y="313.98" width="21.35" height="6.9" rx="3.45" ry="3.45"/>
      <rect class="cls-27" x="164.06" y="326.37" width="21.35" height="6.9" rx="3.45" ry="3.45"/>
      <rect class="cls-8" x="197.21" y="301.59" width="76.73" height="6.9" rx="3.45" ry="3.45"/>
      <rect class="cls-8" x="197.21" y="313.98" width="76.73" height="6.9" rx="3.45" ry="3.45"/>
      <rect class="cls-8" x="197.94" y="326.37" width="76.73" height="6.9" rx="3.45" ry="3.45"/>
      <circle class="cls-27" cx="395.51" cy="77.82" r="3.4"/>
      <circle class="cls-27" cx="413.87" cy="77.82" r="3.4"/>
      <circle class="cls-27" cx="434.85" cy="77.82" r="3.4"/>
      <circle class="cls-27" cx="183.39" cy="168.38" r="18.02"/>
      <path class="cls-16" d="M183.39,186.4c9.95,0,18.02-8.07,18.02-18.02s-8.07-18.02-18.02-18.02v36.04Z"/>
      <circle class="cls-26" cx="183.39" cy="168.38" r="14.23"/>
      <circle class="cls-6" cx="250.44" cy="168.38" r="17.32"/>
      <path class="cls-27" d="M267.76,168.38c0,9.57-7.76,17.32-17.32,17.32s-17.32-7.76-17.32-17.32,7.76-17.32,17.32-17.32v17.32h17.32Z"/>
      <ellipse class="cls-11" cx="250.54" cy="168.3" rx="13.76" ry="14.31"/>
      <path class="cls-27" d="M316.05,150.98c9.57,0,17.32,7.76,17.32,17.32s-7.76,17.32-17.32,17.32-17.32-7.76-17.32-17.32h17.32v-17.32Z"/>
      <ellipse class="cls-13" cx="316.05" cy="168.38" rx="13.76" ry="14.31"/>
      <g>
        <path class="cls-23" d="M152.64,330.84c8-9.25,7.95-22.76-.51-29.71-7.7-6.33-15.98-5.27-15.98-5.27l-.55,20.11"/>
        <path class="cls-18" d="M149.74,331.65c-1.78,2.05-6.9,7.36-14.3,7.75-11.83.62-22.5-11.68-22.5-23.17,0-5.02,2.04-8.98,3.43-11.17l18.03,12.29,15.35,14.3Z"/>
        <path class="cls-27" d="M116.98,304.54l1.26-2.74c2.72-3.37,6.71-6.1,11.04-6.36l2.98.05,1.24,20.43-16.51-11.39Z"/>
      </g>
    </g>
    <g id="Layer_5" data-name="Layer 5">
      <g>
        <path class="cls-5" d="M36.71,194.08h59.27c3.61,0,6.53,2.92,6.53,6.53v57.95c0,3.61-2.93,6.54-6.54,6.54h-58.29c-4.02,0-7.28-3.26-7.28-7.28v-57.43c0-3.48,2.82-6.31,6.31-6.31Z"/>
        <circle class="cls-3" cx="65.49" cy="230.12" r="23.6"/>
        <path class="cls-27" d="M89.09,230.12c0,13.03-6.61,16.38-6.61,16.38l-16.99-16.38v-23.6c13.03,0,23.6,10.57,23.6,23.6Z"/>
        <circle class="cls-19" cx="65.49" cy="229.91" r="17.55"/>
      </g>
      <ellipse class="cls-4" cx="506.41" cy="500.89" rx="86.39" ry="5.33"/>
      <ellipse class="cls-17" cx="65.8" cy="500.89" rx="59.51" ry="5.33"/>
    </g>
    <polygon class="cls-22" points="489.96 498.81 495.46 492.02 504.42 492.02 506.87 496.64 500.51 501.12 494.3 501.12 489.96 498.81"/>
    <polygon class="cls-22" points="522.55 498.81 528.05 492.02 539.25 492.02 539.46 496.64 533.1 501.12 526.89 501.12 522.55 498.81"/>
    <path class="cls-10" d="M492.42,297.77l-22.21,75.83c-.76,2.6-1.05,5.32-.84,8.03l.53,6.9c.06.79.17,1.57.34,2.34l22.18,102.38h13.6l-3.09-65.9c-.09-2.01-.46-3.99-1.1-5.9l-9.11-27.32-.02-.04c-1.65-4.62-1.08-9.74,1.54-13.89l20.13-31.81,10.98,144.86h14.94l6.95-183.28-2.99-10.37-51.84-1.83Z"/>
    <path class="cls-7" d="M498.35,182.46v16.71c0,3.21,1.6,6.21,4.28,7.99l12.11,8.08v-26.22l-16.39-6.56Z"/>
    <path class="cls-7" d="M402.35,192.5l1.94,7.49c.23.9.79,1.69,1.57,2.21l7.32,4.88,29.4,49.21c1.42,2.37,3.98,3.83,6.74,3.83h2.17c.72,0,1.44-.12,2.12-.36l25.38-8.8-2.44-16.66-24.89,6.32c-1.41.36-2.9-.16-3.78-1.32l-30.65-40.45.15-4.47-3.05-3.95h-1.39l1.07,3.26c.16.48-.43.86-.8.51l-5.81-5.37h-3.6l-.33.26c-1.02.81-1.47,2.14-1.14,3.4Z"/>
    <path class="cls-9" d="M498.35,219.7h-9.41c-2.23,0-4.26-1.28-5.22-3.29l-8.4-17.55h-15.76l17.02,35.45,21.78-14.61Z"/>
    <polygon class="cls-26" points="464.78 235.53 509.88 215.24 547.25 227.81 547.25 305 537.91 301.34 489.56 300.53 488.51 251.19 472.09 257.06 464.78 235.53"/>
    <polygon class="cls-26" points="494.85 217.24 494.85 224.15 503.78 224.15 514.74 215.24 494.85 217.24"/>
    <path class="cls-2" d="M506.54,219.55v-24.68c0-1.66-.49-3.28-1.41-4.66l-6.79-7.75v-7.85c0-4.57,3.65-8.3,8.21-8.4l24.55-.56c4.39-.1,8.12,3.19,8.56,7.56l1.83,18.19c.13,1.28.55,2.52,1.23,3.61l10.35,16.57c5.11,8.18,3.33,18.88-4.15,24.96l-4.31,3.51c-7.89,6.42-19.21,6.41-27.09-.03l-3.11-2.54c-1.07-.87-1.91-2-2.44-3.27l-4.77-11.43c-.43-1.03-.65-2.13-.65-3.24Z"/>
    <path class="cls-25" d="M479.05,504.39l.94,1.21h27.48c.77,0,1.39-.62,1.39-1.39v-9.31h-3.76c-.35,0-.7.07-1.03.21l-5.55,2.35c-.96.41-2.02.51-3.04.31l-6.09-1.21-9.62,4.75c-1.15.57-1.49,2.05-.71,3.07Z"/>
    <path class="cls-25" d="M511.31,505.6h0s26.76,0,26.76,0c1.16,0,2.11-.94,2.11-2.11v-8.59l-3.72,1s-.08.02-.12.04l-5.91,2.03c-1.27.71-2.78.85-4.16.37l-4.57-1.58c-.64-.13-1.3-.04-1.89.25l-7.35,3.63c-1.86.92-2.42,3.32-1.15,4.96Z"/>
    <g>
      <path class="cls-14" d="M70.19,456.21v-39.24c0-1.48.21-2.95.61-4.37l3.31-11.6,4.52-8.66c.9-1.72,2.19-3.21,3.78-4.34l7.9-5.64h0c3.18-1.91,6.91-2.69,10.59-2.23l12.21,1.53c1.15.14,2.28.44,3.36.89l10.16,4.23-9.36,2.03c-1.27.28-2.49.78-3.58,1.5l-9.9,6.47c-.8.52-1.52,1.17-2.14,1.9l-10.3,13.95-9.87,16.83-3.24,5.18c-1.06,1.7-2.81,2.85-4.79,3.15l-.8.12-1.8.12.48,18.17h-1.15Z"/>
      <path class="cls-14" d="M65.85,452.71l2.45-50.58c.02-.44.22-.85.55-1.14l4.35-3.84c.14-.12.25-.26.34-.42l5.24-9.31,6.38-12.25c.72-1.38,1.26-2.84,1.61-4.36l3.55-15.32,3.18-12.13c.33-1.26.78-2.49,1.33-3.66l5.87-12.47c.31-.65.65-1.29,1.02-1.9l2.96-4.82c1.42-2.32,3.28-4.33,5.48-5.93l3.24-2.36,2.69-1.79h-17.38c-.19,0-.38.03-.55.1l-8.72,3.17c-1.12.41-2.18.98-3.14,1.69l-3.93,2.91c-1.77,1.31-3.28,2.95-4.44,4.82l-2.45,3.95c-.77,1.24-1.41,2.57-1.89,3.95l-2.71,7.67c-.44,1.25-.77,2.55-.97,3.86l-2.15,13.84-1.95,13.64c0,.06-.01.12-.02.18l-1.62,50.64-2.93-81.46c-.04-.99-.15-1.98-.34-2.95l-2.18-11.15c-.15-.74-.35-1.47-.62-2.18l-5.01-13.22c-.76-2-1.9-3.83-3.36-5.39l-4.65-4.97c-1.18-1.27-2.61-2.28-4.19-3l-4.57-2.07c-1.5-.68-3.14-1.03-4.79-1.03h-15.99l12.66,14.04c.7.78,1.27,1.67,1.69,2.63l5.67,13.07c.2.46.36.93.47,1.42l5.16,21.39c.04.17.09.34.14.51l5.71,18.96c.28.92.65,1.8,1.12,2.64l.18.33c1.17,2.09,2.89,3.82,4.96,5.02l.39.23c.21.12.39.29.53.48l2.78,4.02,2.67,3.47c.21.27.32.59.34.93l2.61,70.13c.03.87.75,1.56,1.62,1.56h0c.87,0,1.58-.68,1.62-1.55Z"/>
      <polygon class="cls-14" points="57.89 454.25 55.8 419.64 51.02 416.06 42.97 406.21 32.82 391.59 20.29 375.78 12.53 369.81 0 369.81 4.18 365.63 10.74 362.95 20.89 360.86 34.61 360.86 41.24 365.34 50.43 376.08 55.5 387.71 57.89 401.14 59.38 442.91 59.38 454.25 57.89 454.25"/>
      <polygon class="cls-17" points="41.24 460.87 44.67 500.62 85.4 500.62 90.31 460.87 41.24 460.87"/>
      <rect class="cls-21" x="35.84" y="451.55" width="59.38" height="9.32"/>
    </g>
  </g>
</svg>