<?xml version="1.0" encoding="UTF-8"?>
<svg id="Layer_2" data-name="Layer 2" xmlns="http://www.w3.org/2000/svg" viewBox="0 0 1117.89 719.2">
  <defs>
    <style>
      .cls-1 {
        fill: #f9edbb;
      }

      .cls-1, .cls-2, .cls-3, .cls-4, .cls-5, .cls-6, .cls-7, .cls-8, .cls-9, .cls-10, .cls-11, .cls-12, .cls-13, .cls-14, .cls-15, .cls-16, .cls-17, .cls-18, .cls-19, .cls-20, .cls-21, .cls-22, .cls-23, .cls-24, .cls-25, .cls-26, .cls-27, .cls-28, .cls-29, .cls-30, .cls-31, .cls-32, .cls-33, .cls-34, .cls-35, .cls-36, .cls-37, .cls-38, .cls-39, .cls-40, .cls-41 {
        stroke-width: 0px;
      }

      .cls-2 {
        fill: #1ffff9;
      }

      .cls-3 {
        fill: #310af2;
      }

      .cls-3, .cls-7, .cls-10, .cls-11, .cls-13, .cls-42, .cls-18, .cls-26, .cls-43, .cls-31, .cls-33 {
        isolation: isolate;
      }

      .cls-3, .cls-10, .cls-13, .cls-18, .cls-31 {
        opacity: .5;
      }

      .cls-4 {
        fill: #fcefb9;
      }

      .cls-5 {
        fill: #050554;
      }

      .cls-6 {
        fill: #f9ba1c;
      }

      .cls-7 {
        fill: #2aa3f4;
      }

      .cls-7, .cls-11, .cls-33 {
        opacity: .7;
      }

      .cls-8 {
        fill: #390dd6;
      }

      .cls-9 {
        fill: #032556;
      }

      .cls-10, .cls-28 {
        fill: #00b6e2;
      }

      .cls-11 {
        fill: #0c56e8;
      }

      .cls-12 {
        fill: #f9ecb9;
      }

      .cls-13, .cls-38 {
        fill: #fff;
      }

      .cls-44, .cls-45 {
        fill: none;
        stroke: #fff;
        stroke-miterlimit: 10;
      }

      .cls-14 {
        fill: #f9ebb4;
      }

      .cls-15 {
        fill: #7171ff;
      }

      .cls-42 {
        font-family: Sathu, Sathu;
        font-size: 72px;
      }

      .cls-42, .cls-25 {
        fill: #ff8200;
      }

      .cls-16 {
        fill: #f9ebb2;
      }

      .cls-17 {
        fill: #5656d8;
      }

      .cls-18, .cls-27 {
        fill: #f9f3ed;
      }

      .cls-19 {
        fill: #f9f1d2;
      }

      .cls-20 {
        fill: #020749;
      }

      .cls-21 {
        fill: #560d05;
      }

      .cls-45 {
        stroke-width: 3px;
      }

      .cls-22 {
        fill: #ff8b00;
      }

      .cls-23 {
        fill: #2aabf2;
      }

      .cls-24 {
        fill: #f9eec0;
      }

      .cls-26 {
        fill: #f9efc5;
        opacity: .8;
      }

      .cls-29 {
        fill: #052263;
      }

      .cls-30 {
        fill: #ffc41d;
      }

      .cls-31 {
        fill: #ffe05c;
      }

      .cls-32 {
        fill: #60605e;
      }

      .cls-33 {
        fill: #0a0aea;
      }

      .cls-34 {
        fill: #032f75;
      }

      .cls-35 {
        fill: #ff9700;
      }

      .cls-36 {
        fill: #29388e;
      }

      .cls-37 {
        fill: #350901;
      }

      .cls-39 {
        fill: #6bb6f9;
      }

      .cls-40 {
        fill: #ddd9f9;
      }

      .cls-41 {
        fill: #8e1b04;
      }
    </style>
  </defs>
  <g id="Layer_2-2" data-name="Layer 2">
    <g id="Layer_2-2" data-name="Layer 2-2">
      <path class="cls-10" d="M88.29,152.6h0c-30.5,3.3-57.3,22.1-71.1,49.9l-8.9,18c-13.5,27.2-10.3,59.9,8.1,84l29.2,38.2c23.1,30.2,28.9,70.4,15.3,106.1l-3.7,9.6-16.9,33.4c-14.9,29.5-15,64.5,0,94.1l29.2,57.9c20.9,41.3,62.8,67.3,108.7,67.3h205c18.9,0,37.6-2.9,55.6-8.7l22.3-7.1c14.8-4.8,30.4-6.7,46-5.8l137.2,8.2,15.7,4c57.1,14.4,117.5,2,164.5-33.8l167.1-127.5c41.5-31.7,69-78.7,76.3-130.9h0c3.7-26.1,9.9-51.7,18.6-76.5l1.1-3.1c10.5-29.9,12.8-62.2,6.7-93.4l-7.9-40.1c-11.5-58.4-52.7-106.2-108.2-125.8h0c-25.7-9-54.1-5.2-76.6,10.3h0c-20.8,21-51.9,27.5-79.2,16.5l-7.8-3.2c-2.5-1-4.6-3.1-5.7-5.6h0c-11.7-28.1-38.1-47.1-68.1-49.2l-43.4-3c-57-4-70.6,11.1-121.3,37.8l-2.2,1.2c-33.2,17.6-70.5,25.8-108,23.9l-53.5-2.7c-26.9-1.4-53.4-6.9-78.6-16.4l-74-27.9c-32.4-12.2-63.8-17.5-95.3-3.1l-16.6,6.8c-5.4,2.4-14,12.5-18.3,16.5l-3.7,3.4c-9.9,9.1-15.3,22.2-14.7,35.7,1,19.7,4.6,37.8-23.1,40.8h0l.2.2Z"/>
      <path class="cls-10" d="M122.79,172.6h0c-28.8,2.9-54.1,19.4-67,43.9l-8.4,15.8c-12.7,23.9-9.7,52.6,7.6,73.8l27.5,33.6c21.8,26.5,27.2,61.9,14.4,93.2l-3.4,8.4-15.9,29.3c-14.1,26-14.1,56.7,0,82.7l27.6,50.9c19.7,36.3,59.3,59.2,102.5,59.2h193.4c17.8,0,35.5-2.6,52.4-7.6l21-6.2c14-4.2,28.7-5.9,43.3-5.1l129.5,7.2,14.8,3.5c53.8,12.7,110.9,1.8,155.2-29.7l157.7-112c39.2-27.8,65.1-69.2,72-115h0c3.5-22.9,9.4-45.4,17.6-67.2l1-2.7c9.9-26.3,12.1-54.6,6.3-82l-7.5-35.2c-10.9-51.3-49.7-93.3-102.1-110.5h0c-24.2-7.9-51-4.6-72.2,9.1h0c-19.6,18.5-49,24.2-74.7,14.5l-7.3-2.8c-2.4-.9-4.3-2.7-5.3-4.9h0c-11.1-24.7-35.9-41.4-64.2-43.2l-40.9-2.7c-53.8-3.5-66.6,9.7-114.4,33.2l-2.1,1c-31.4,15.4-66.5,22.7-101.9,21l-50.5-2.4c-25.3-1.2-50.3-6.1-74.1-14.4l-69.8-24.5c-30.6-10.7-60.1-15.4-89.9-2.8l-15.7,6c-5.1,2.1-13.2,11-17.3,14.5l-3.5,3c-9.3,8-14.4,19.5-13.8,31.3.9,17.3,4.3,33.2-21.8,35.9h0l-.1-.1Z"/>
      <path class="cls-7" d="M300.09,689l-79.9-95.8c-38.4-46.1-59.4-116-59.1-197.6l.5-145.9c.2-42.8,6.1-87.8,17.6-132.6L209.19,0l100.4,222.9c11,24.5,17.4,53.8,18.7,86l6.3,156.4c1.6,38.9-2.4,80.2-11.7,121.8l-22.7,101.8h0l-.1.1Z"/>
      <path class="cls-45" d="M300.09,689l-38.1-170.1c-13.2-63-24.6-136.6-33.7-218.2l-20.8-207"/>
      <path class="cls-33" d="M218.89,719.2l-65.6-23.1c-31.6-11.1-58.1-32.9-75.1-61.4l-30.3-51c-8.9-15-15-31.4-17.8-48.5l-7.6-44.8,103.9,64.9c11.4,7.1,21.2,16.5,28.7,27.6l36.4,53.8c9.1,13.4,15.5,28.3,18.9,44l8.4,38.5h.1Z"/>
      <path class="cls-45" d="M204.69,706.9l-62.6-51.8c-21.8-19.2-40.4-41.6-55.4-66.5l-34.1-63.1"/>
      <path class="cls-11" d="M308.89,708.5l-117.6-89.5c-56.6-43.1-96.3-101-112.2-163.7l-28.3-112.1c-8.3-32.9-9.9-66.3-4.7-98.5l13.7-84.2,168.2,191.4c18.5,21,32.2,44.9,40.2,69.9l38.8,121.5c9.6,30.2,13,61.2,9.8,91.3l-7.8,73.8h0l-.1.1Z"/>
      <path class="cls-45" d="M300.09,689l-90.9-136c-31.6-50.4-58.7-109.2-80.4-174.4l-49.4-165.5"/>
      <path class="cls-33" d="M935.59,625.8l66.6-32.1c32-15.4,57.7-41.9,72.5-74.7l26.4-58.8c7.8-17.2,12.4-35.8,13.6-54.8l3.2-49.6-102.5,81.6c-11.3,9-20.5,20.2-27.3,33.1l-32.5,62.4c-8.1,15.5-13.2,32.5-15.2,50l-4.8,42.8h0v.1Z"/>
      <path class="cls-45" d="M968.89,596.2l52.4-51.8c18.2-19.2,33.8-41.6,46.3-66.5l28.5-63.1"/>
      <path class="cls-11" d="M847.49,648.9l112.3-110.8c54.1-53.4,86.9-119.7,92.7-187.4l10.4-121.2c3.1-35.6-1.3-70.6-13-103.4l-30.4-85.9-148.9,224.7c-16.4,24.7-27,51.6-31.1,78.9l-20.1,132.6c-5,33-2.9,65.8,6.1,96.8l22.1,75.9h0l-.1-.2Z"/>
      <path class="cls-45" d="M874.09,604.8l69.2-147.9c23.6-54.5,41.5-116.6,53.1-184.4l24-170.9"/>
      <g>
        <g>
          <polygon class="cls-9" points="500.79 582.9 483.39 694.9 678.79 694.9 652.59 582.9 500.79 582.9"/>
          <path class="cls-34" d="M218.99,174.2l667.4,9.4c25.4.4,46,20.8,46.6,46.2l6.3,299.9c.8,39.9-31.5,72.6-71.4,72.2l-629.3-5.9c-28.8-.3-51.9-23.7-51.9-52.4V206.1c0-17.8,14.6-32.2,32.4-31.9h-.1Z"/>
          <path class="cls-34" d="M428.79,685.7l-3,17.3c-1.1,6.2,3.9,11.8,10.5,11.8h277.8c9.5,0,16.1-8.9,13-17.3l-4.7-12.7c-2.2-5.9-8.2-9.9-14.8-9.8l-271,4.3c-3.9,0-7.2,2.7-7.8,6.4h0Z"/>
        </g>
        <path class="cls-38" d="M239.89,191.9l640.4,7.4c18.8.2,33.9,14.9,33.9,32.8v294.8c0,18.1-15.3,32.8-34.3,32.8H239.49c-18.9,0-34.3-14.7-34.3-32.8V224.8c0-18.3,15.6-33.1,34.7-32.8h0v-.1Z"/>
        <line class="cls-44" x1="237.79" y1="570.4" x2="896.69" y2="570.4"/>
        <circle class="cls-44" cx="571.99" cy="586.1" r="9.1"/>
        <path class="cls-44" d="M433.99,698.6l1.8-8c.3-1.3,1.4-2.2,2.7-2.2l227.2-4.5"/>
      </g>
      <rect class="cls-12" x="251.59" y="230" width="97.3" height="12.3" rx="6.1" ry="6.1"/>
      <path class="cls-12" d="M257.69,257.7h85c3.4,0,6.1,2.7,6.1,6.1h0c0,3.4-2.7,6.1-6.1,6.1h-85c-3.4,0-6.1-2.7-6.1-6.1h0c0-3.4,2.7-6.1,6.1-6.1Z"/>
      <path class="cls-12" d="M257.69,308.1h85c3.4,0,6.1,2.7,6.1,6.1h0c0,3.4-2.7,6.1-6.1,6.1h-85c-3.4,0-6.1-2.7-6.1-6.1h0c0-3.4,2.7-6.1,6.1-6.1Z"/>
      <path class="cls-12" d="M257.69,333.2h85c3.4,0,6.1,2.7,6.1,6.1h0c0,3.4-2.7,6.1-6.1,6.1h-85c-3.4,0-6.1-2.7-6.1-6.1h0c0-3.4,2.7-6.1,6.1-6.1Z"/>
      <path class="cls-12" d="M257.69,358.4h85c3.4,0,6.1,2.7,6.1,6.1h0c0,3.4-2.7,6.1-6.1,6.1h-85c-3.4,0-6.1-2.7-6.1-6.1h0c0-3.4,2.7-6.1,6.1-6.1Z"/>
      <rect class="cls-12" x="366.69" y="230" width="97.3" height="12.3" rx="6.1" ry="6.1"/>
      <path class="cls-12" d="M372.79,257.7h85c3.4,0,6.1,2.7,6.1,6.1h0c0,3.4-2.7,6.1-6.1,6.1h-85c-3.4,0-6.1-2.7-6.1-6.1h0c0-3.4,2.7-6.1,6.1-6.1Z"/>
      <path class="cls-12" d="M372.79,308.1h85c3.4,0,6.1,2.7,6.1,6.1h0c0,3.4-2.7,6.1-6.1,6.1h-85c-3.4,0-6.1-2.7-6.1-6.1h0c0-3.4,2.7-6.1,6.1-6.1Z"/>
      <path class="cls-12" d="M372.79,333.2h85c3.4,0,6.1,2.7,6.1,6.1h0c0,3.4-2.7,6.1-6.1,6.1h-85c-3.4,0-6.1-2.7-6.1-6.1h0c0-3.4,2.7-6.1,6.1-6.1Z"/>
      <path class="cls-12" d="M372.79,358.4h85c3.4,0,6.1,2.7,6.1,6.1h0c0,3.4-2.7,6.1-6.1,6.1h-85c-3.4,0-6.1-2.7-6.1-6.1h0c0-3.4,2.7-6.1,6.1-6.1Z"/>
      <rect class="cls-12" x="482.49" y="230" width="97.3" height="12.3" rx="6.1" ry="6.1"/>
      <path class="cls-12" d="M488.59,257.7h85c3.4,0,6.1,2.7,6.1,6.1h0c0,3.4-2.7,6.1-6.1,6.1h-85c-3.4,0-6.1-2.7-6.1-6.1h0c0-3.4,2.7-6.1,6.1-6.1Z"/>
      <path class="cls-12" d="M486.49,308.1h85c3.4,0,6.1,2.7,6.1,6.1h0c0,3.4-2.7,6.1-6.1,6.1h-85c-3.4,0-6.1-2.7-6.1-6.1h0c0-3.4,2.7-6.1,6.1-6.1h0Z"/>
      <path class="cls-12" d="M488.59,333.2h85c3.4,0,6.1,2.7,6.1,6.1h0c0,3.4-2.7,6.1-6.1,6.1h-85c-3.4,0-6.1-2.7-6.1-6.1h0c0-3.4,2.7-6.1,6.1-6.1Z"/>
      <path class="cls-12" d="M488.59,358.4h85c3.4,0,6.1,2.7,6.1,6.1h0c0,3.4-2.7,6.1-6.1,6.1h-85c-3.4,0-6.1-2.7-6.1-6.1h0c0-3.4,2.7-6.1,6.1-6.1Z"/>
      <rect class="cls-16" x="591.79" y="231.6" width="24.8" height="60.6"/>
      <polygon class="cls-28" points="591.79 360.6 618.29 360.6 616.59 292.2 591.79 292.2 591.79 360.6"/>
      <rect class="cls-16" x="634.29" y="231.6" width="24.8" height="86.4"/>
      <polygon class="cls-28" points="634.29 360.6 660.89 360.6 659.19 318.1 634.29 318.1 634.29 360.6"/>
      <rect class="cls-16" x="676.59" y="231.6" width="24.8" height="28.2"/>
      <polygon class="cls-28" points="676.59 360.6 703.09 360.6 701.39 259.8 676.59 259.8 676.59 360.6"/>
      <rect class="cls-16" x="718.59" y="231.6" width="24.8" height="106.7"/>
      <polygon class="cls-28" points="718.59 360.6 745.09 360.6 743.39 339.3 718.59 339.3 718.59 360.6"/>
      <rect class="cls-16" x="760.99" y="231.6" width="24.8" height="43.2"/>
      <polygon class="cls-28" points="760.99 360.6 787.49 360.6 785.79 274.9 760.99 274.9 760.99 360.6"/>
      <rect class="cls-16" x="803.29" y="231.6" width="24.8" height="57.1"/>
      <polygon class="cls-28" points="803.29 360.6 829.89 360.6 828.19 288.7 803.29 288.7 803.29 360.6"/>
      <rect class="cls-16" x="845.19" y="231.6" width="24.8" height="76.4"/>
      <polygon class="cls-28" points="845.19 360.6 871.79 360.6 870.09 308.1 845.19 308.1 845.19 360.6"/>
      <ellipse class="cls-19" cx="300.19" cy="435.1" rx="48.7" ry="47.2"/>
      <ellipse class="cls-24" cx="415.29" cy="435.1" rx="48.7" ry="47.2"/>
      <ellipse class="cls-14" cx="528.69" cy="435.1" rx="48.7" ry="47.2"/>
      <path class="cls-28" d="M348.89,435.1c0,17.3-12.1,47.2-50.1,47.2s-47.2-30-47.2-47.2c0,0,31.4,1.1,48.7,1.1s48.7-1.1,48.7-1.1h-.1Z"/>
      <circle class="cls-38" cx="300.19" cy="436.9" r="38.8"/>
      <path class="cls-28" d="M463.99,435.1c0,17.3-12.1,47.2-50.1,47.2s-47.2-30-47.2-47.2c0,0,31.4,1.1,48.7,1.1l25.9-40c23.9,12,22.8,38.8,22.8,38.8h0l-.1.1Z"/>
      <circle class="cls-38" cx="415.29" cy="435.1" r="38.8"/>
      <path class="cls-28" d="M577.29,435.1c0,17.3-12.1,47.2-50.1,47.2s-47.2-30-47.2-47.2c0,0,31.4,1.1,48.7,1.1l-20.4-44c66.8-18.2,69.1,42.9,69.1,42.9h-.1Z"/>
      <circle class="cls-38" cx="528.58" cy="436.75" r="38.8"/>
      <rect class="cls-31" x="591.79" y="387.9" width="288.9" height="158.7" rx="12" ry="12"/>
      <path class="cls-26" d="M602.49,486.6l49.7-51.4,24.3,32.1,32.4-36.5,34.5,36.5,50-53.4,36.5,33.8,40.2-21.1v89.2c0,9-7.3,16.4-16.4,16.4h-241.9c-5.1,0-9.3-4.2-9.3-9.3v-36.2h0v-.1Z"/>
      <circle class="cls-6" cx="676.99" cy="466" r="6"/>
      <circle class="cls-6" cx="709.79" cy="429.9" r="5.1"/>
      <circle class="cls-6" cx="793.19" cy="413.9" r="5.1"/>
      <line class="cls-44" x1="652.59" y1="435.6" x2="652.59" y2="532.1"/>
      <line class="cls-44" x1="676.99" y1="467.2" x2="676.99" y2="532.1"/>
      <line class="cls-44" x1="709.79" y1="435.6" x2="709.79" y2="532.1"/>
      <line class="cls-44" x1="744.09" y1="462.1" x2="744.09" y2="532.1"/>
      <line class="cls-44" x1="769.49" y1="439.5" x2="769.49" y2="532.1"/>
      <line class="cls-44" x1="793.19" y1="418.2" x2="793.19" y2="532.1"/>
      <line class="cls-44" x1="829.19" y1="447.6" x2="829.19" y2="532.1"/>
      <line class="cls-44" x1="855.09" y1="433.4" x2="855.09" y2="532"/>
      <line class="cls-44" x1="627.19" y1="461" x2="627.19" y2="532.1"/>
      <circle class="cls-6" cx="652.59" cy="435" r="6.9"/>
      <circle class="cls-6" cx="744.09" cy="465.5" r="5.1"/>
      <circle class="cls-39" cx="829.19" cy="447.5" r="5.1"/>
      <g>
        <polygon class="cls-21" points="326.79 687.2 335.29 701.6 342.09 699.3 345.79 694.5 337.39 679.9 326.79 687.2"/>
        <path class="cls-17" d="M177.39,546.3l53.8,6.1,48.9,7.8c5.6.8,9.6,5.7,9.1,11.3l-3.8,46.4-16.2,69.3-3.3.5h-3.8c-.8,0-1.6,0-2.3-.2l-6.4-1.5,4.3-87.8,8.5-14.7-88.7-37.4h0l-.1.2Z"/>
        <polygon class="cls-21" points="253.59 685.4 250.89 694.2 257.49 695.9 265.49 695 266.39 686.9 253.59 685.4"/>
        <path class="cls-1" d="M208.89,411.5l19.9,15.1c5.9,4.5,10.4,10.5,13,17.4l12.7,33.2c1.6,4.2,4.4,7.8,8,10.4l34.2,24.9c1.8,1.3,3.5,2.9,4.9,4.7l1.9,2.4-20.8,1.2-15.4-6.5c-2.4-1-5.8-2.8-6.8-3.5l-6.9-4.1-4.6-3.7-7.6-6.6c-.7-.5-3.3-3.4-5.2-6l-5.8-6.6-50.8,63.3-22.6,3.9c-2.5.4-5.1.4-7.7,0l-23.6-4.1,1.7-9.9c0-.5.2-1,.3-1.5l2.5-10.5,3.2-11.3c.3-1.1.7-2.2,1.2-3.3l3.5-9.5,2.7-6.5,2.6-5.7c.1-.3.2-.5.4-.8l2.3-4.6c1.9-4.6,5.8-11,7.4-13.3l7.1-10.7c.2-.4.5-.8.8-1.1l7.8-10c3.9-5.5,9.6-12,14.8-16.3l24.9-20.3h0v-.1Z"/>
        <polygon class="cls-41" points="209.69 413.4 240.49 393 248.59 411.5 229.09 428.9 209.69 413.4"/>
        <path class="cls-41" d="M243.69,409.5l2.3,3.3c.6.8,1.4,1.5,2.3,1.8l13.8,4.8c1.1.4,2.3.1,3.2-.6h0c.8-.7,1.4-1.7,1.6-2.8l6.8-36.1-30.6-4.2.6,33.9h0v-.1Z"/>
        <path class="cls-41" d="M245.49,387l-2.1-1.3c-.9-.6-2-.7-3-.3h0c-.8.3-1.4,1.1-1.6,2l-.5,2.5c-.1.7-.1,1.4,0,2l.8,3.7c.2.8.6,1.6,1.1,2.2l1,1.1c.9,1.1,2.3,1.7,3.8,1.7h.6v-13.6h-.1Z"/>
        <path class="cls-37" d="M267.39,381.9h8.2c.5,0,1-.1,1.5-.3l1.2-.6c1.7-.8,3-2.2,3.7-3.9l.4-.9c1-2.4,1-5.1,0-7.4l-2-4.6c-.8-2-2.8-3.2-4.9-3.2h-4.5c-.9,0-1.8.4-2.4,1.1l-2,2.3c-.6.8-1.6,1.2-2.6,1.2h-4.9c-.4,0-.8,0-1.1-.1l-4.7-1.2c-.4-.1-.8-.3-1.2-.6l-.4-.4c-1.8-1.4-4.2-1.6-6.2-.6l-2.4,1.2c-1.9,1-3.1,3-3.1,5.2v2.6c0,1.6-1,3.1-2.5,3.7h-.4c-1.8.9-3,2.7-3,4.6v1.9l.5,2.7c.3,1.4,1.3,2.5,2.6,2.9l2.9.9c1.1.3,2.3,0,3-.9l5.3-7c.2-.3.6-.5,1-.4l18.2,1.8h-.2Z"/>
        <path class="cls-15" d="M127.29,545l-2.6,14.3c-2.4,13,7.2,25.1,20.4,25.8l101.2,5.1c3.5.2,6.8,1.9,8.9,4.7l5,11.5c2.4,5.5,5.5,10.6,9.4,15.1l58.2,69.4,16.4-10.2-65-102.2c-3.5-5.5-9-9.4-15.3-10.9-29.4-7.2-58.9-14.3-88.4-21.5-1.5-.4-3.1-.8-4.6-1.1h-43.6,0Z"/>
        <path class="cls-5" d="M250.39,692.3l-3.2,12.4c-.3,1.3.3,2.6,1.5,3.2h.2c1.5.8,3.1,1.2,4.8,1.2h50c1,0,1.9-.5,2.4-1.3h0c.6-1,.5-2.3-.3-3.1l-5.9-6.1c-2.7-2.8-6.2-4.7-10-5.4l-4.8-.9c-1.1-.2-2.2-.3-3.3-.2l-17.3.8-2.5,1.5c-.2.2-.5.2-.8.3l-1.6.3h-.8l-2.5-.3h-.3l-1.3-.3c-.3,0-.7-.2-1-.4l-1.4-.8s-.2,0-.3-.1l-1.6-.7h0v-.1Z"/>
        <path class="cls-5" d="M334.89,701.9l5.6,11.5c.6,1.2,1.9,1.8,3.2,1.5h.2c1.6-.5,3.1-1.3,4.4-2.3l38.2-32.2c.7-.6,1.1-1.6,1-2.5h0c-.1-1.2-1.1-2.1-2.2-2.2l-8.5-.9c-3.9-.4-7.8.4-11.1,2.3l-4.3,2.4c-1,.5-1.9,1.2-2.7,2l-12.7,11.7-1,2.7c-.1.3-.2.5-.4.8l-1,1.3c-.2.2-.4.4-.6.5l-2.1,1.4s-.1,0-.2.1l-1.2.6c-.3.2-.6.3-1,.3l-1.6.3h-.3l-1.7.5h0v.2Z"/>
        <path class="cls-22" d="M126.39,578.5l81,1.9c7,.2,12.3,6.3,11.5,13.3h0c-.7,6.1-5.9,10.6-12.1,10.5l-81-1.9c-6.4-.2-11.6-5.4-11.6-11.9h0c0-6.7,5.5-12,12.1-11.9h.1Z"/>
        <path class="cls-30" d="M206.59,600.3l12.4,110.4c.2,1.8-1.2,3.3-2.9,3.3h-.7c-1.4,0-2.7-1.1-2.9-2.5l-17.9-110.4c-.3-1.8,1.1-3.5,2.9-3.5h6.2c1.5,0,2.8,1.1,2.9,2.7h0Z"/>
        <path class="cls-30" d="M126.99,600.3l-12.4,110.4c-.2,1.8,1.2,3.3,2.9,3.3h.7c1.4,0,2.7-1.1,2.9-2.5l18-110.4c.3-1.8-1.1-3.5-2.9-3.5h-6.3c-1.5,0-2.8,1.1-2.9,2.7Z"/>
        <path class="cls-2" d="M281.19,523.5l1.2-2c.2-.4.7-.7,1.1-.7l86.4-.8c.5,0,1-.3,1.2-.8l36.2-79c.3-.6,1-.9,1.7-.7l4.8,1.8c.7.3,1.1,1.1.8,1.8l-36.3,79.7c-.2.5-.7.8-1.2.8h-95.8l-.1-.1Z"/>
        <path class="cls-29" d="M263.79,526.1l-2.1,6.8c-.7,2.3,1,4.6,3.4,4.6h130.7c2.4,0,4.1-2.1,3.7-4.4l-.9-4.8c-.5-2.7-2.9-4.7-5.6-4.7h-125.6c-1.6,0-3,1-3.5,2.6h0l-.1-.1Z"/>
        <path class="cls-32" d="M322.59,537.7l-44.9,171.6c-.5,1.7.7,3.5,2.5,3.7l6.4.8c1.5.2,2.9-.8,3.2-2.3l38.9-160.4h1.7v41.8c0,1.6,1.9,2.9,3.5,2.9h0c1.6,0,3.6-1,3.6-2.6l.3-42.1h1.1l40.1,160.8c.4,1.7,2.2,2.7,3.9,2.1l6-2.1c1.5-.5,2.3-2.1,1.9-3.6l-45.1-170.3h-3.4c0-.1-19.8-.2-19.8-.2h0l.1-.1Z"/>
        <polygon class="cls-41" points="298.99 515.8 326.39 509.1 344.89 520.2 303.59 519.7 298.99 515.8"/>
      </g>
      <g>
        <path class="cls-20" d="M752.79,512.9l264.3-3.5c12.2-.2,22,9.9,21.5,22.1l-6.5,155.8c-.5,11.3-9.7,20.2-20.9,20.4l-253.8,3.5c-11.6.2-21.2-9.1-21.5-20.7l-4-155.8c-.3-11.8,9.1-21.6,21-21.8h-.1Z"/>
        <path class="cls-35" d="M759.29,519.8l250.6-3.2c11.6-.2,20.9,9.2,20.4,20.4l-.5,11-5.7,132.4c-.4,10.4-9.2,18.6-19.8,18.7l-240.7,3.2c-11,.2-20.1-8.3-20.4-19l-3.6-135.8-.2-7.6c-.3-10.9,8.7-19.9,19.9-20.1h0Z"/>
        <path class="cls-36" d="M739.39,543.6l290.7,4.2.2-11.1c.2-11.7-9.3-21.3-21.1-21.2l-260.9,3.1c-4.9,0-8.9,4-8.9,8.8v16.1h0v.1Z"/>
        <circle class="cls-38" cx="748.39" cy="523.7" r="1.7"/>
        <circle class="cls-38" cx="748.39" cy="531.7" r="1.7"/>
        <circle class="cls-38" cx="748.39" cy="539.7" r="1.7"/>
        <path class="cls-18" d="M746.69,543.7l6.2,130.6c.4,8.4,7.3,15,15.7,14.9l231-2c8,0,14.6-6.5,14.7-14.6l2.4-124.8-270-4.1h0Z"/>
        <path class="cls-27" d="M899.19,574.9h85.1c2.2,0,4,1.8,4,4h0c0,2.2-1.8,4-4,4h-85.1c-2.2,0-4-1.8-4-4h0c0-2.2,1.8-4,4-4Z"/>
        <path class="cls-27" d="M899.19,608.4h85.1c2.2,0,4,1.8,4,4h0c0,2.2-1.8,4-4,4h-85.1c-2.2,0-4-1.8-4-4h0c0-2.2,1.8-4,4-4Z"/>
        <path class="cls-27" d="M899.19,641.8h85.1c2.2,0,4,1.8,4,4h0c0,2.2-1.8,4-4,4h-85.1c-2.2,0-4-1.8-4-4h0c0-2.2,1.8-4,4-4Z"/>
        <circle class="cls-27" cx="809.29" cy="612.4" r="47.2"/>
        <circle class="cls-23" cx="876.99" cy="579.7" r="4.7"/>
        <circle class="cls-23" cx="876.99" cy="612.4" r="4.7"/>
        <circle class="cls-23" cx="876.99" cy="645.8" r="4.7"/>
        <path class="cls-28" d="M767.89,683.2l233.7-3.6c1.1,0,2-.7,2.5-1.8l2.9-6.8c.9-2.1-.5-4.6-2.6-4.5l-238.3,2.8c-1.8,0-3.2,2-2.7,4l1.8,7.6c.3,1.4,1.5,2.4,2.8,2.4h0l-.1-.1Z"/>
      </g>
      <g>
        <circle class="cls-25" cx="1035.29" cy="413.9" r="61.5"/>
        <ellipse class="cls-4" cx="1036.19" cy="413.8" rx="50.9" ry="52.8"/>
      </g>
      <g>
        <circle class="cls-25" cx="1035.29" cy="383.5" r="61.5"/>
        <ellipse class="cls-4" cx="1036.19" cy="383.4" rx="50.9" ry="52.8"/>
      </g>
      <path class="cls-38" d="M894.29,108.8h91.2c3.8,0,6.8,3.1,6.8,6.8h0c0,3.8-3.1,6.8-6.8,6.8h-91.2c-3.8,0-6.8-3.1-6.8-6.8h0c0-3.8,3.1-6.8,6.8-6.8Z"/>
      <path class="cls-38" d="M894.29,133.9h91.2c3.8,0,6.8,3.1,6.8,6.8h0c0,3.8-3.1,6.8-6.8,6.8h-91.2c-3.8,0-6.8-3.1-6.8-6.8h0c0-3.8,3.1-6.8,6.8-6.8Z"/>
      <path class="cls-38" d="M894.29,156h91.2c3.8,0,6.8,3.1,6.8,6.8h0c0,3.8-3.1,6.8-6.8,6.8h-91.2c-3.8,0-6.8-3.1-6.8-6.8h0c0-3.8,3.1-6.8,6.8-6.8Z"/>
      <path class="cls-38" d="M894.29,180.5h91.2c3.8,0,6.8,3.1,6.8,6.8h0c0,3.8-3.1,6.8-6.8,6.8h-91.2c-3.8,0-6.8-3.1-6.8-6.8h0c0-3.8,3.1-6.8,6.8-6.8Z"/>
      <g>
        <polygon class="cls-8" points="778.29 175.7 780.89 174.2 781.39 170.4 779.89 167.7 781.39 164.1 784.49 165.3 787.89 162.6 787.89 159.3 791.99 158.5 793.79 160.9 797.89 161.8 800.29 159.7 803.39 161.7 803.39 164.8 805.49 168.1 808.49 168.6 809.49 172.2 807.09 173.9 806.49 178.2 808.29 180.5 806.39 183.7 803.29 183.7 799.59 185.8 799.39 188.6 795.99 189.8 794.59 187.2 789.99 186.7 787.49 188.4 783.99 186.6 784.59 184 782.79 180.2 779.29 179.9 778.29 175.7"/>
        <ellipse class="cls-40" cx="793.99" cy="174.1" rx="9.4" ry="9.6"/>
        <ellipse class="cls-8" cx="793.99" cy="174.1" rx="7.8" ry="8.1"/>
        <polygon class="cls-8" points="797.09 167.8 799.79 165 804.39 171.9 799.79 173 797.09 167.8"/>
        <circle class="cls-44" cx="793.89" cy="174.1" r="3.6"/>
      </g>
      <g>
        <polygon class="cls-8" points="809.49 145.7 813.99 143.2 814.89 136.5 812.19 131.9 814.89 125.6 820.19 127.5 826.09 122.8 826.09 117.1 833.29 115.6 836.29 120 843.39 121.4 847.49 117.8 852.99 121.2 852.99 126.6 856.59 132.4 861.79 133.3 863.59 139.6 859.29 142.7 858.39 150.2 861.39 154.2 858.19 159.8 852.89 159.8 846.39 163.4 846.09 168.2 840.19 170.4 837.69 165.9 829.69 165 825.39 168.1 819.29 164.8 820.39 160.3 817.19 153.7 811.29 153.1 809.49 145.7"/>
        <ellipse class="cls-40" cx="836.59" cy="143" rx="16.3" ry="16.8"/>
        <ellipse class="cls-8" cx="836.59" cy="142.9" rx="13.5" ry="14.1"/>
        <polygon class="cls-8" points="842.09 131.9 846.69 127.1 854.59 139.2 846.69 141 842.09 131.9"/>
        <ellipse class="cls-44" cx="836.59" cy="142.9" rx="6.3" ry="6.4"/>
      </g>
      <path class="cls-13" d="M759.69,100.1v101.4c0,11.1,9.1,20.1,20.3,20.1h198.7c10.8,0,19.6-8.3,20.3-18.9l6.1-101.4c.7-11.6-8.6-21.3-20.3-21.3h-204.8c-11.2,0-20.3,9-20.3,20.1h0Z"/>
      <rect class="cls-3" x="358.09" y="89.8" width="17.5" height="72.8"/>
      <rect class="cls-3" x="386.79" y="114.2" width="17.5" height="48.3"/>
      <rect class="cls-3" x="415.29" y="55.8" width="17.5" height="106.7"/>
      <rect class="cls-3" x="442.99" y="138.4" width="17.5" height="24.1"/>
      <rect class="cls-3" x="468.29" y="69.9" width="17.5" height="92.6"/>
      <rect class="cls-3" x="497.09" y="86.2" width="17.5" height="76.4"/>
      <rect class="cls-3" x="524.89" y="102.5" width="17.5" height="60.1"/>
      <rect class="cls-3" x="550.99" y="33.1" width="17.5" height="129.4"/>
      <rect class="cls-3" x="576.89" y="46.9" width="17.5" height="115.7"/>
      <rect class="cls-3" x="605.09" y="67.8" width="17.5" height="94.8"/>
      <rect class="cls-3" x="632.09" y="138.4" width="17.5" height="24.1"/>
      <rect class="cls-3" x="659.19" y="93.8" width="17.5" height="68.8"/>
      <g>
        <circle class="cls-25" cx="1035.29" cy="350" r="61.5"/>
        <ellipse class="cls-4" cx="1036.19" cy="349.9" rx="50.9" ry="52.8"/>
      </g>
      <g>
        <ellipse class="cls-25" cx="1036.19" cy="310.2" rx="70.2" ry="65.1"/>
        <ellipse class="cls-4" cx="1037.29" cy="310.2" rx="58.2" ry="56"/>
      </g>
      <g class="cls-43">
        <g class="cls-43">
          <text class="cls-42" transform="translate(1010.29 339.1)"><tspan x="0" y="0">$</tspan></text>
        </g>
      </g>
    </g>
  </g>
</svg>